<svg width="16" height="16" fill="none" xmlns="http://www.w3.org/2000/svg"><g clip-path="url(#clip0)"><path d="M14.4 4.8v8.912L12.105 16h-6.42L1.6 12.644V4.8h12.8z" fill="#5920BE"/><path d="M9.6.8H7.2v4.8h2.4V.8z" fill="#B36DD4"/><path d="M9.076 8.759H7.458a.306.306 0 000 .612h1.618a.306.306 0 100-.612zm4.155.044h-1.618a.306.306 0 000 .612h1.618a.306.306 0 000-.612zM10.876 14.4c-.05 0-.1-.011-.146-.033l-1.752-.848a.31.31 0 01-.178-.272.31.31 0 01.167-.278l1.753-.93a.33.33 0 01.44.122c.086.15.029.34-.128.423l-1.215.645 1.205.582c.134.065.204.21.169.35a.321.321 0 01-.315.24z" fill="#fff"/></g><defs><clipPath id="clip0"><path fill="#fff" d="M0 0h16v16H0z"/></clipPath></defs></svg>