<svg width="24" height="24" fill="none" xmlns="http://www.w3.org/2000/svg"><path d="M20.08 6.776V19l-3.141 3.14H8.156l-5.589-4.604V6.776H20.08z" fill="#B36DD4"/><path d="M4.325 7.8l18.777 2.96V1.2L0 5.923l1.024 7.226 5.52-1.138-2.22-4.21z" fill="#5920BE"/><path d="M10.631 14.577l-.425-.673 1.081-.683-1.005-.648.432-.67 1.532.987a.398.398 0 01-.003.672l-1.612 1.015zm7.651.021l-1.674-1.03a.398.398 0 01.004-.683l1.61-.972.411.683-1.05.636 1.117.688-.418.678zm-4.079 4.507c-.167 0-.335-.015-.5-.044-1.622-.278-2.395-1-2.739-1.474a.38.38 0 01.611-.455c.243.323.862.904 2.262 1.144 1.613.277 2.35-1.345 2.357-1.362a.398.398 0 01.565-.183.41.41 0 01.154.526c-.314.693-1.242 1.848-2.71 1.848z" fill="#5920BE"/></svg>