<svg width="16" height="16" fill="none" xmlns="http://www.w3.org/2000/svg"><g clip-path="url(#clip0)"><path d="M8.018 14.827a6.052 6.052 0 100-12.104 6.052 6.052 0 000 12.104z" fill="#F267A0"/><path d="M12.079 8.533a.32.32 0 01-.302-.2c-.184-.478-.33-.53-.332-.53-.083.007-.303.265-.428.545a.329.329 0 01-.42.162.295.295 0 01-.172-.395c.068-.153.435-.915 1.021-.915h.016c.567.013.832.702.919.929a.287.287 0 01-.04.275.328.328 0 01-.262.129zm-4 0a.32.32 0 01-.302-.2c-.184-.478-.33-.53-.332-.53-.083.007-.303.265-.428.545a.329.329 0 01-.42.162.295.295 0 01-.172-.395c.068-.153.435-.915 1.021-.915h.016c.567.013.832.702.919.929a.287.287 0 01-.04.275.327.327 0 01-.262.129z" fill="#fff"/><path d="M12.76 5.075l2.37-3.413-2.011.755L10.137.8 1.911 2.991.869 8.057l1.617 1.15 1.724-.648 1.617-3.304 6.933-.18z" fill="#F6BDE8"/><path d="M9.608 11.636a.565.565 0 01-.076-.005c-.652-.096-.63-1.148-.618-1.357a.26.26 0 11.52.027c-.02.403.08.8.174.814.11-.01.375-.438.526-.924a.26.26 0 01.498.155c-.097.31-.447 1.29-1.024 1.29z" fill="#fff"/></g><defs><clipPath id="clip0"><path fill="#fff" d="M0 0h16v16H0z"/></clipPath></defs></svg>