<svg width="16" height="16" fill="none" xmlns="http://www.w3.org/2000/svg"><path d="M14.486 3.098H2.354v10.644h12.132V3.098z" fill="#5A4CA4"/><path d="M9.126 3.098s.124 1.853 1.944 1.853c1.819 0 4.13.355 4.13.355V1.6H1.6v7.372h2.812V3.413l4.714-.315z" fill="#161C46"/><path d="M9.314 7.917a.286.286 0 01-.27-.188c-.163-.454-.294-.503-.295-.503-.074.006-.27.25-.381.516a.286.286 0 11-.527-.22c.06-.146.387-.868.91-.868h.013c.505.013.74.665.819.88a.286.286 0 01-.27.383zm3.758 0a.286.286 0 01-.27-.188c-.163-.454-.294-.503-.295-.503-.074.006-.27.25-.381.516a.286.286 0 01-.528-.22c.061-.146.388-.868.91-.868h.014c.505.013.74.665.818.88a.286.286 0 01-.268.383z" fill="#fff"/><path d="M11.1 11.81a.276.276 0 01-.124-.03l-1.494-.751a.276.276 0 01-.01-.488l1.495-.825a.276.276 0 01.267.483l-1.037.572 1.028.517a.276.276 0 01-.125.522z" fill="#161C46"/></svg>