<svg width="18" height="18" fill="none" xmlns="http://www.w3.org/2000/svg"><path fill-rule="evenodd" clip-rule="evenodd" d="M17.73 11.177A8.998 8.998 0 11.27 6.824a8.998 8.998 0 0117.461 4.353z" fill="#F7931A"/><path fill-rule="evenodd" clip-rule="evenodd" d="M12.835 8.058c.174-1.182-.711-1.818-1.921-2.242l.392-1.601-.958-.243-.382 1.56a39.04 39.04 0 00-.768-.185l.385-1.569-.958-.243-.393 1.6a31.706 31.706 0 01-.612-.145l.001-.005L6.3 4.649 6.045 5.69s.71.166.696.176c.388.099.458.36.446.567L6.74 8.257a.786.786 0 01.1.032l-.101-.025-.627 2.555c-.048.12-.168.3-.44.232.01.014-.696-.177-.696-.177L4.5 11.99l1.248.316.417.11.266.07-.397 1.62.957.242.393-1.602c.262.072.515.139.764.201l-.392 1.595.959.243.396-1.616c1.635.314 2.864.187 3.38-1.316.418-1.21-.02-1.908-.88-2.364.627-.147 1.098-.566 1.224-1.431zm-2.19 3.124c-.272 1.111-1.982.651-2.764.441l-.186-.049.527-2.146c.065.017.145.035.235.056.809.184 2.466.563 2.189 1.698zM8.62 8.485c.652.177 2.074.563 2.322-.446.253-1.032-1.13-1.344-1.805-1.496a8.141 8.141 0 01-.197-.046l-.477 1.946.157.042z" fill="#fff"/></svg>