<svg width="19" height="18" fill="none" xmlns="http://www.w3.org/2000/svg"><circle cx="9.5" cy="9" r="9" fill="#fff"/><path d="M9.655 3a4.674 4.674 0 00-4.41 6.168c.122.332.482.51.82.408a.663.663 0 00.395-.816c-.138-.38-.2-.783-.181-1.187a3.358 3.358 0 113.56 3.453s-.653.04-.978.08c-.12.017-.239.04-.356.07a.043.043 0 01-.06 0h-.001a.043.043 0 010-.052l.1-.552.615-2.76a.638.638 0 00-1.248-.267s-1.46 6.757-1.46 6.818a.613.613 0 00.454.748h.034a.613.613 0 00.747-.44l.004-.017a.159.159 0 010-.03c.018-.08.202-.979.202-.979a1.656 1.656 0 011.371-1.303c.141-.022.733-.062.733-.062A4.652 4.652 0 009.656 3z" fill="#1E1E1E"/><path d="M9.938 13.734a.776.776 0 00-.918.602l-.002.012a.773.773 0 00.592.92h.022a.76.76 0 00.917-.561l.003-.01v-.042a.804.804 0 00-.614-.92z" fill="#E6007A"/></svg>