<svg width="18" height="18" fill="none" xmlns="http://www.w3.org/2000/svg"><circle cx="9" cy="9" r="9" fill="#E2E2EA"/><g clip-path="url(#clip0)"><path d="M9 2.333l-.09.304v8.816l.09.09 4.091-2.42L9 2.334z" fill="#343434"/><path d="M9 2.333l-4.093 6.79 4.092 2.42v-9.21z" fill="#8C8C8C"/><path d="M9 12.317l-.051.062v3.14l.05.148L13.094 9.9l-4.095 2.417z" fill="#3C3C3B"/><path d="M9 15.667v-3.35L4.906 9.9l4.092 5.767z" fill="#8C8C8C"/><path d="M8.999 11.543l4.092-2.42L9 7.264v4.28z" fill="#161616"/><path d="M4.907 9.124l4.092 2.418V7.264l-4.092 1.86z" fill="#383838"/></g><defs><clipPath id="clip0"><path fill="#fff" transform="translate(2.333 2.333)" d="M0 0h13.333v13.333H0z"/></clipPath></defs></svg>