<svg width="24" height="24" fill="none" xmlns="http://www.w3.org/2000/svg"><rect width="24" height="24" rx="12" fill="#fff"/><path d="M11.996 16.742H7.154c-.612 0-1.072-.386-1.148-.985a1.157 1.157 0 01.402-.984l.459-.348a.999.999 0 00.421-.714c.21-1.274.383-2.568.632-3.822.268-1.448 1.301-2.626 2.66-3.166.153-.058.21-.116.23-.29.019-.656.478-1.12 1.11-1.177.574-.058 1.11.347 1.244.926.019.116.038.232.038.328 0 .097.038.135.134.174 1.397.444 2.412 1.68 2.718 3.127.191.927.306 1.873.478 2.8.077.405.115.81.192 1.216a.79.79 0 00.344.54c.172.135.364.27.536.406.345.29.46.656.364 1.1-.096.444-.402.734-.862.83-.076.02-.153.02-.23.02-1.626.019-3.253.019-4.88.019zm1.589.386a.21.21 0 01.21.27 1.915 1.915 0 01-1.818 1.352c-.842 0-1.569-.56-1.818-1.351a.211.211 0 01.21-.27h3.216z" fill="#4045D2"/></svg>