<svg width="20" height="20" fill="none" xmlns="http://www.w3.org/2000/svg"><path fill-rule="evenodd" clip-rule="evenodd" d="M10 3.791c.633 0 1.148-.534 1.148-1.191 0-.331.26-.6.578-.6h2.082C15.568 2 17 3.486 17 5.314v9.372C17 16.513 15.568 18 13.808 18h-2.082a.59.59 0 01-.578-.6c0-.658-.514-1.192-1.147-1.192-.617 0-1.08.513-1.08 1.192a.61.61 0 01-.17.424.568.568 0 01-.409.176l-2.15-.002C4.433 17.998 3 16.512 3 14.685v-9.37c0-1.827 1.433-3.314 3.193-3.314L8.275 2c.153 0 .3.063.409.175.108.113.17.265.17.425 0 .657.514 1.191 1.147 1.191zm.504 4.408l-.885-.944a.55.55 0 00-.585-.15.58.58 0 00-.386.478l-.184 1.303-1.137.583a.591.591 0 00-.319.53V10c0 .226.122.429.318.53l1.138.584.183 1.3c.03.225.179.41.387.48a.55.55 0 00.585-.15l.885-.942 1.25.222a.558.558 0 00.56-.236.61.61 0 00.042-.622L11.766 10l.588-1.164a.6.6 0 00-.041-.624.556.556 0 00-.558-.237l-1.25.224z" fill="#fff"/></svg>