<svg width="20" height="20" fill="none" xmlns="http://www.w3.org/2000/svg"><path fill-rule="evenodd" clip-rule="evenodd" d="M10.261 2.168a.66.66 0 01.47-.167c3.657.11 6.713 2.764 7.266 6.312a.19.19 0 010 .063.625.625 0 01-.157.46.65.65 0 01-.444.216l-6.143.405a.733.733 0 01-.555-.184.704.704 0 01-.235-.527l-.413-6.035v-.1a.635.635 0 01.211-.443zm-.421 8.867l5.325-.341.036.014a.87.87 0 01.605.258.837.837 0 01.243.602c-.21 3.058-2.452 5.612-5.503 6.27-3.05.659-6.178-.738-7.676-3.427a6.572 6.572 0 01-.818-2.509A4.765 4.765 0 012 11.113c.01-3.251 2.325-6.058 5.564-6.745a.881.881 0 01.956.476.895.895 0 01.102.206c.06.937.123 1.866.186 2.79l.147 2.186c-.003.171.024.342.08.504a.82.82 0 00.804.505z" fill="#fff"/></svg>