<svg width="20" height="20" fill="none" xmlns="http://www.w3.org/2000/svg"><path fill-rule="evenodd" clip-rule="evenodd" d="M14.144 3.928a1.929 1.929 0 013.856 0 1.929 1.929 0 01-3.856 0zm-3.08 8.28l2.312-2.984-.032.016a.6.6 0 00-.423-.952.615.615 0 00-.561.248l-1.935 2.504-2.217-1.744a.632.632 0 00-.456-.128.62.62 0 00-.4.24l-2.367 3.08-.049.072a.598.598 0 00.168.76c.112.072.232.12.368.12a.567.567 0 00.472-.24l2.008-2.585 2.28 1.713.072.047a.599.599 0 00.76-.168zm1.696-8.784c-.032.2-.048.4-.048.6 0 1.8 1.456 3.255 3.248 3.255.2 0 .392-.023.592-.055v6.455c0 2.713-1.6 4.32-4.32 4.32H6.32C3.6 18 2 16.393 2 13.68V7.76c0-2.72 1.6-4.336 4.32-4.336h6.44z" fill="#fff"/></svg>