<svg width="20" height="20" fill="none" xmlns="http://www.w3.org/2000/svg"><path d="M10 2c-4.411 0-8 3.589-8 8s3.589 8 8 8 8-3.589 8-8-3.589-8-8-8zm.508 2.599l2.057-1.106a7.033 7.033 0 012.889 2.13l-.49 2.262-1.569.769-2.887-2.103V4.599zM7.452 3.487l2.057 1.11v1.954L6.624 8.654l-1.577-.77-.49-2.276a7.023 7.023 0 012.895-2.121zM4.23 13.954a6.954 6.954 0 01-1.195-3.274l1.693-1.839 1.544.755 1.163 3.303-.983 1.178-2.222-.123zm7.553 2.807A6.953 6.953 0 0110 17c-.746 0-1.464-.12-2.139-.337l-.629-1.958L8.235 13.5h3.534l.985 1.166-.971 2.095zm1.751-2.718l-.967-1.145 1.179-3.302 1.537-.753 1.683 1.838a6.934 6.934 0 01-.945 2.871l-2.487.491z" fill="#fff"/></svg>