<svg width="10" height="14" fill="none" xmlns="http://www.w3.org/2000/svg"><path fill-rule="evenodd" clip-rule="evenodd" d="M8.912 1.011a.528.528 0 01.575-.087.528.528 0 01.313.49v10.985a.533.533 0 01-.886.402l-.828-.732a.06.06 0 00-.08 0l-1.125 1.007a.536.536 0 01-.716 0L5.04 12.07a.06.06 0 00-.08 0l-1.124 1.006a.536.536 0 01-.716 0l-1.126-1.007a.06.06 0 00-.079 0l-.827.732A.533.533 0 01.2 12.4V1.413a.532.532 0 01.886-.402l.829.733a.06.06 0 00.079 0L3.12.737a.536.536 0 01.715 0L4.96 1.743a.06.06 0 00.08 0L6.165.737a.536.536 0 01.715 0l1.126 1.007a.06.06 0 00.079 0l.827-.733zM2.2 3.8a.4.4 0 100 .8h5.6a.4.4 0 000-.8H2.2zm-.4 2.8c0-.22.18-.4.4-.4h5.6a.4.4 0 110 .8H2.2a.4.4 0 01-.4-.4zm.4 2a.4.4 0 100 .8h5.6a.4.4 0 000-.8H2.2z" fill="#38393E"/></svg>