<svg width="18" height="18" fill="none" xmlns="http://www.w3.org/2000/svg"><path fill-rule="evenodd" clip-rule="evenodd" d="M17.73 11.177A8.998 8.998 0 11.27 6.824a8.998 8.998 0 0117.461 4.353z" fill="#fff"/><path d="M7.785 5.528c-.12-.017-.126-.023-.07-.028.11-.017.362.005.54.046.413.097.785.35 1.18.79l.104.121.15-.023a3.197 3.197 0 011.834.23c.149.068.384.206.412.24a.558.558 0 01.04.16c.04.27.023.47-.063.626-.045.086-.045.109-.017.183.023.058.092.098.155.098.138 0 .281-.218.35-.522l.028-.12.052.057c.292.327.522.78.556 1.1l.012.087-.052-.075a.969.969 0 00-.275-.292c-.195-.132-.402-.172-.946-.2-.493-.03-.774-.07-1.05-.161-.47-.155-.71-.356-1.266-1.095a5.269 5.269 0 00-.556-.654c-.339-.327-.677-.499-1.118-.568z" fill="#FF007A"/><path d="M12.055 6.256c.011-.217.04-.36.103-.493a.4.4 0 01.052-.097c.006 0-.006.04-.023.086-.046.126-.052.304-.023.504.04.258.057.293.332.574.127.132.276.298.333.367l.098.126-.098-.092a3.495 3.495 0 00-.459-.361c-.04-.023-.045-.023-.074.006-.023.023-.029.057-.029.223-.006.258-.04.419-.126.585-.046.086-.052.069-.011-.029.028-.074.034-.109.034-.355 0-.499-.057-.62-.407-.82a4.278 4.278 0 00-.321-.166 1.276 1.276 0 01-.155-.075c.012-.011.35.086.482.144.2.08.235.086.258.08.017-.017.028-.063.034-.207zm-4.037.854c-.24-.332-.395-.848-.36-1.232l.01-.12.058.011c.103.017.28.086.367.138.23.137.332.327.43.797.028.137.069.298.086.35.028.085.137.286.23.412.062.092.022.138-.121.126-.218-.023-.51-.223-.7-.481zm3.743 2.494c-1.135-.458-1.536-.854-1.536-1.525 0-.097.006-.177.006-.177.006 0 .046.034.097.074.23.184.488.264 1.204.367.419.063.66.11.877.184.694.229 1.124.7 1.227 1.335.029.184.012.534-.034.717-.04.143-.155.407-.184.413-.005 0-.017-.029-.017-.075a.933.933 0 00-.332-.647c-.241-.207-.55-.362-1.308-.666zm-.801.19a1.36 1.36 0 00-.057-.241l-.029-.086.052.063c.075.086.132.19.184.333.04.108.04.143.04.32 0 .173-.006.213-.04.31a1.037 1.037 0 01-.241.384c-.207.212-.476.327-.86.379-.069.005-.264.023-.436.034-.43.023-.717.069-.975.16-.034.012-.068.024-.074.018-.011-.012.166-.115.31-.184.2-.097.407-.149.86-.229.223-.034.452-.08.51-.103.567-.178.848-.62.756-1.158z" fill="#FF007A"/><path d="M11.482 10.717c-.149-.327-.183-.637-.103-.929.011-.029.023-.057.034-.057.012 0 .046.017.08.04.07.046.213.126.58.327.464.252.728.447.911.67.16.195.258.419.304.694.029.155.012.527-.029.682-.126.488-.412.877-.83 1.101a.804.804 0 01-.121.057.457.457 0 01.051-.126c.138-.292.155-.573.052-.888-.063-.195-.195-.43-.459-.826-.315-.459-.39-.579-.47-.745zM7.21 12.471c.424-.355.946-.608 1.428-.688.206-.034.55-.023.74.029.303.08.578.252.722.464.137.207.2.384.263.78.023.155.052.315.058.35.046.206.137.366.252.452.178.132.487.138.791.023.052-.017.098-.034.098-.028.011.011-.144.114-.247.166a.812.812 0 01-.413.097c-.275 0-.51-.143-.7-.43a3.237 3.237 0 01-.188-.378c-.201-.464-.304-.602-.54-.757-.206-.132-.47-.16-.67-.063a.432.432 0 00-.15.67.586.586 0 00.328.173.35.35 0 00.395-.35c0-.137-.051-.218-.189-.28-.183-.081-.384.01-.378.188 0 .075.034.12.109.155.046.023.046.023.011.018-.166-.035-.206-.241-.074-.373.16-.16.498-.092.613.132a.6.6 0 01.011.39c-.097.252-.372.384-.653.31-.19-.053-.27-.104-.499-.34-.401-.412-.556-.492-1.13-.578l-.108-.017.12-.115z" fill="#FF007A"/><path fill-rule="evenodd" clip-rule="evenodd" d="M4.195 3.247a610.554 610.554 0 013.497 4.282c.086.115.052.224-.091.304a.877.877 0 01-.327.092.414.414 0 01-.275-.12c-.052-.052-.276-.38-.78-1.165a74.25 74.25 0 00-.717-1.106c-.023-.011-.023-.011.677 1.238.441.786.585 1.067.585 1.101 0 .075-.023.115-.115.218-.155.172-.224.367-.275.774-.058.453-.212.774-.654 1.318-.258.322-.298.379-.361.51a.97.97 0 00-.115.46c-.011.217.012.355.075.561.057.184.12.304.275.539.132.206.212.361.212.418 0 .046.012.046.218 0 .493-.114.9-.309 1.124-.55.137-.149.172-.23.172-.436a.47.47 0 00-.04-.24c-.058-.127-.167-.23-.402-.39-.31-.212-.441-.384-.476-.614-.028-.195.006-.326.178-.688.178-.372.224-.527.252-.905.018-.241.046-.339.115-.413.075-.08.138-.11.315-.132.293-.04.482-.115.631-.258.132-.12.19-.24.195-.418l.006-.132-.075-.08A515.246 515.246 0 004 3c-.005 0 .086.109.195.247zm1.76 8.152a.237.237 0 00-.074-.315c-.098-.064-.247-.035-.247.051 0 .023.012.046.046.057.052.03.057.058.017.12-.04.064-.04.121.012.161.08.063.189.029.246-.074zm2.322-3.016a.509.509 0 00-.31.339c-.023.091-.011.258.029.31.063.08.12.102.28.102.316 0 .586-.137.614-.303.029-.138-.091-.327-.258-.413a.583.583 0 00-.355-.035zm.367.287c.046-.069.028-.143-.058-.195-.154-.097-.39-.017-.39.132 0 .074.121.155.236.155.074 0 .177-.046.212-.092z" fill="#FF007A"/></svg>