<svg width="18" height="18" fill="none" xmlns="http://www.w3.org/2000/svg"><circle cx="9" cy="9" r="9" fill="#53AE94"/><path d="M10.019 7.9V6.675h2.806v-1.87H5.183v1.87H7.99V7.9c-2.281.105-3.996.556-3.996 1.098 0 .54 1.716.993 3.996 1.098v3.931h2.03v-3.931c2.277-.105 3.988-.557 3.988-1.098 0-.54-1.711-.992-3.988-1.097h-.001zm0 1.863v-.001a16.66 16.66 0 01-1.006.021c-.524 0-.892-.015-1.022-.022v.002c-2.015-.09-3.52-.44-3.52-.86s1.505-.77 3.52-.86v1.37c.132.01.51.032 1.03.032.626 0 .941-.026.999-.032v-1.37c2.011.09 3.512.441 3.512.86 0 .418-1.502.77-3.512.859" fill="#fff"/></svg>