<svg width="16" height="16" viewBox="0 0 16 16" fill="none" xmlns="http://www.w3.org/2000/svg">
<g clip-path="url(#clip0)">
<path d="M14.4001 4.80011V13.7116L12.1047 16.0001H5.68515L1.6001 12.6438V4.80011H14.4001Z" fill="#5920BE"/>
<path d="M9.6002 0.80011H7.2002V5.60011H9.6002V0.80011Z" fill="#B36DD4"/>
<path d="M9.07649 8.759H7.45846C7.2894 8.759 7.15234 8.89605 7.15234 9.06512C7.15234 9.23418 7.2894 9.37123 7.45846 9.37123H9.07649C9.24555 9.37123 9.3826 9.23418 9.3826 9.06512C9.3826 8.89605 9.24555 8.759 9.07649 8.759Z" fill="white"/>
<path d="M13.2313 8.80276H11.6132C11.4442 8.80276 11.3071 8.93982 11.3071 9.10888C11.3071 9.27794 11.4442 9.41499 11.6132 9.41499H13.2313C13.4003 9.41499 13.5374 9.27794 13.5374 9.10888C13.5374 8.93982 13.4003 8.80276 13.2313 8.80276Z" fill="white"/>
<path d="M10.8757 14.4001C10.8252 14.4 10.7755 14.3886 10.7305 14.3668L8.97798 13.5193C8.87075 13.4674 8.80219 13.3627 8.79987 13.2474C8.79754 13.132 8.86183 13.0249 8.96689 12.969L10.7199 12.0388C10.8764 11.9559 11.0732 12.0106 11.1595 12.1611C11.2458 12.3115 11.1889 12.5008 11.0324 12.5837L9.81703 13.2286L11.0218 13.8112C11.1556 13.8762 11.2256 14.021 11.1908 14.1612C11.156 14.3014 11.0256 14.4003 10.8757 14.4001Z" fill="white"/>
</g>
<defs>
<clipPath id="clip0">
<rect width="16" height="16" fill="white" transform="translate(0 0.00012207)"/>
</clipPath>
</defs>
</svg>
