<svg width="16" height="16" viewBox="0 0 16 16" fill="none" xmlns="http://www.w3.org/2000/svg">
<path d="M14.4857 3.09811H2.354V13.7417H14.4857V3.09811Z" fill="#5A4CA4"/>
<path d="M9.12627 3.09811C9.12627 3.09811 9.25045 4.95088 11.0697 4.95088C12.889 4.95088 15.2002 5.30566 15.2002 5.30566V1.60013H1.6001V8.97178H4.41197V3.41347L9.12627 3.09811Z" fill="#161C46"/>
<path d="M9.31367 7.91736C9.19322 7.91736 9.08569 7.84185 9.04482 7.72854C8.88083 7.27481 8.75035 7.22632 8.74917 7.22632C8.67506 7.23223 8.47953 7.47625 8.36797 7.74194C8.30712 7.88759 8.13972 7.95634 7.99407 7.89548C7.84842 7.83463 7.77967 7.66723 7.84052 7.52158C7.90123 7.37612 8.22842 6.65433 8.75035 6.65433H8.76415C9.26913 6.66655 9.50486 7.31935 9.58252 7.53419C9.61411 7.62177 9.60106 7.71925 9.54755 7.79544C9.49404 7.87162 9.40677 7.91697 9.31367 7.91697V7.91736Z" fill="white"/>
<path d="M13.0715 7.91736C12.951 7.91736 12.8435 7.84185 12.8026 7.72854C12.6386 7.27481 12.5082 7.22632 12.507 7.22632C12.4329 7.23223 12.2373 7.47625 12.1258 7.74194C12.0649 7.88759 11.8975 7.95634 11.7519 7.89548C11.6062 7.83463 11.5375 7.66723 11.5983 7.52158C11.659 7.37572 11.9862 6.65433 12.5082 6.65433H12.522C13.0269 6.66655 13.2627 7.31935 13.3403 7.53419C13.3719 7.62177 13.3589 7.71925 13.3054 7.79544C13.2519 7.87162 13.1646 7.91697 13.0715 7.91697V7.91736Z" fill="white"/>
<path d="M11.1002 11.8101C11.0572 11.81 11.0148 11.7999 10.9764 11.7805L9.48201 11.0287C9.39058 10.9827 9.33211 10.8899 9.33013 10.7876C9.32815 10.6852 9.38297 10.5902 9.47255 10.5407L10.9674 9.71564C11.1008 9.64205 11.2687 9.69059 11.3423 9.82405C11.4159 9.95751 11.3673 10.1253 11.2339 10.1989L10.1975 10.7709L11.2248 11.2877C11.339 11.3453 11.3986 11.4738 11.3689 11.5981C11.3393 11.7225 11.2281 11.8102 11.1002 11.8101Z" fill="#161C46"/>
</svg>
