<svg width="24" height="24" viewBox="0 0 24 24" fill="none" xmlns="http://www.w3.org/2000/svg">
<path d="M20.0794 6.77621V19.0004L16.939 22.1396H8.15626L2.56738 17.5357V6.77621H20.0794Z" fill="#B36DD4"/>
<path d="M4.32452 7.8006L23.1021 10.7595V1.20001L0 5.92285L1.02423 13.1493L6.54368 12.0113L4.32452 7.8006Z" fill="#5920BE"/>
<path d="M10.6311 14.5774L10.2061 13.9037L11.2872 13.2209L10.2823 12.5734L10.7136 11.9036L12.246 12.8897C12.3605 12.9634 12.4294 13.0905 12.4287 13.2267C12.428 13.3628 12.3578 13.4892 12.2426 13.5617L10.6311 14.5774Z" fill="#5920BE"/>
<path d="M18.2819 14.5985L16.6084 13.5675C16.489 13.4949 16.4163 13.3649 16.417 13.2251C16.4177 13.0853 16.4917 12.9561 16.6119 12.8847L18.2216 11.9134L18.633 12.5962L17.5826 13.2318L18.7001 13.9203L18.2819 14.5985Z" fill="#5920BE"/>
<path d="M14.2033 19.1045C14.0357 19.1043 13.8683 19.0898 13.7031 19.0613C12.0809 18.783 11.3076 18.0615 10.9645 17.587C10.8928 17.4889 10.8722 17.3625 10.909 17.2468C10.9457 17.131 11.0354 17.0397 11.1505 17.0009C11.3055 16.9487 11.4764 17.0014 11.575 17.1318C11.818 17.4555 12.4365 18.0359 13.8374 18.2761C15.45 18.5532 16.1869 16.9309 16.1943 16.9144C16.2401 16.8107 16.3279 16.7313 16.4358 16.6964C16.5437 16.6614 16.6614 16.674 16.7593 16.7312C16.9377 16.8414 17.0042 17.0684 16.9135 17.2575C16.5989 17.95 15.6708 19.1045 14.2033 19.1045Z" fill="#5920BE"/>
</svg>
