<svg width="16" height="16" viewBox="0 0 16 16" fill="none" xmlns="http://www.w3.org/2000/svg">
<g clip-path="url(#clip0)">
<path d="M8.01777 14.8269C11.3602 14.8269 14.0697 12.1173 14.0697 8.77491C14.0697 5.43251 11.3602 2.72296 8.01777 2.72296C4.67537 2.72296 1.96582 5.43251 1.96582 8.77491C1.96582 12.1173 4.67537 14.8269 8.01777 14.8269Z" fill="#F267A0"/>
<path d="M12.079 8.53317C11.9437 8.53317 11.823 8.45346 11.7771 8.33388C11.5929 7.855 11.4464 7.80383 11.4451 7.80383C11.3619 7.81007 11.1423 8.0676 11.0171 8.34802C10.9487 8.50174 10.7608 8.5743 10.5972 8.51007C10.4337 8.44585 10.3565 8.26917 10.4248 8.11545C10.493 7.96151 10.8604 7.20013 11.4464 7.20013H11.4619C12.029 7.21303 12.2937 7.90201 12.3809 8.12876C12.4163 8.22119 12.4017 8.32407 12.3416 8.40448C12.2815 8.48489 12.1835 8.53275 12.079 8.53275V8.53317Z" fill="white"/>
<path d="M8.07897 8.53317C7.94372 8.53317 7.82298 8.45346 7.77709 8.33388C7.59294 7.855 7.44643 7.80383 7.4451 7.80383C7.36188 7.81007 7.14233 8.0676 7.01706 8.34802C6.94873 8.50174 6.76075 8.5743 6.5972 8.51007C6.43365 8.44585 6.35646 8.26917 6.42479 8.11545C6.49296 7.96151 6.86036 7.20013 7.44643 7.20013H7.46192C8.02895 7.21303 8.29366 7.90201 8.38086 8.12876C8.41633 8.22119 8.40168 8.32407 8.34159 8.40448C8.28151 8.48489 8.18352 8.53275 8.07897 8.53275V8.53317Z" fill="white"/>
<path d="M12.7596 5.07494L15.1306 1.66226L13.1189 2.41664L10.1373 0.80011L1.91091 2.99141L0.869141 8.05655L2.48567 9.20609L4.20998 8.55947L5.82651 5.25456L12.7596 5.07494Z" fill="#F6BDE8"/>
<path d="M9.60801 11.6359C9.58265 11.6358 9.55732 11.634 9.53221 11.6305C8.8802 11.5349 8.90248 10.4835 8.91361 10.2737C8.91821 10.1806 8.97224 10.097 9.05528 10.0546C9.13832 10.0122 9.23769 10.0174 9.31583 10.0683C9.39397 10.1191 9.43895 10.2079 9.43378 10.301C9.4133 10.7044 9.51461 11.1014 9.60765 11.115C9.71757 11.105 9.98304 10.6767 10.1339 10.1914C10.1766 10.054 10.3225 9.97725 10.4599 10.0199C10.5973 10.0626 10.6741 10.2085 10.6315 10.3459C10.5352 10.6566 10.1849 11.6359 9.60801 11.6359Z" fill="white"/>
</g>
<defs>
<clipPath id="clip0">
<rect width="16" height="16" fill="white" transform="translate(0 0.00012207)"/>
</clipPath>
</defs>
</svg>
