<svg width="18" height="18" viewBox="0 0 18 18" fill="none" xmlns="http://www.w3.org/2000/svg">
<path fill-rule="evenodd" clip-rule="evenodd" d="M17.7309 11.1773C16.5287 15.9987 11.6445 18.9327 6.82195 17.7306C2.00162 16.5286 -0.93299 11.645 0.269489 6.82382C1.47112 2.00181 6.35502 -0.932734 11.1762 0.269322C15.9985 1.47138 18.9328 6.35554 17.7306 11.1773H17.7309Z" fill="#F7931A"/>
<path fill-rule="evenodd" clip-rule="evenodd" d="M12.8354 8.05767C13.009 6.87562 12.124 6.24018 10.9139 5.81628L11.3064 4.21504L10.3477 3.97214L9.96555 5.53118C9.71387 5.46733 9.45509 5.40709 9.19794 5.3474L9.58284 3.77809L8.62496 3.53519L8.23215 5.13587C8.02359 5.08756 7.81886 5.03981 7.62013 4.98957L7.62122 4.98457L6.29947 4.64894L6.04451 5.68997C6.04451 5.68997 6.75561 5.8557 6.7406 5.86597C7.12877 5.96452 7.1992 6.22575 7.18719 6.43284L6.74005 8.25699C6.7668 8.26393 6.80147 8.27393 6.83969 8.28947L6.73869 8.26393L6.11166 10.8193C6.06416 10.9392 5.94378 11.1191 5.67244 11.0508C5.68199 11.065 4.9758 10.874 4.9758 10.874L4.5 11.99L5.74751 12.3062C5.88832 12.342 6.02742 12.379 6.16499 12.4155L6.16508 12.4155L6.16512 12.4155C6.2542 12.4391 6.34264 12.4626 6.4305 12.4855L6.03386 14.1053L6.99119 14.3482L7.38428 12.7459C7.64552 12.8181 7.89939 12.8847 8.1478 12.9474L7.75635 14.5423L8.71477 14.7852L9.11141 13.1687C10.7457 13.4832 11.9749 13.3563 12.4917 11.8534C12.9085 10.643 12.4712 9.94484 11.6113 9.48929C12.2375 9.34188 12.7092 8.92297 12.8351 8.05767H12.8354ZM10.6453 11.1821C10.3732 12.293 8.66305 11.8334 7.88126 11.6233L7.88122 11.6232C7.81123 11.6044 7.74867 11.5876 7.69526 11.5741L8.22156 9.4285C8.28685 9.44507 8.36661 9.46327 8.45697 9.48389L8.457 9.4839C9.2658 9.66847 10.9233 10.0467 10.6456 11.1821H10.6453ZM8.61918 8.48529C9.2715 8.66227 10.6934 9.04804 10.9411 8.03889C11.1944 7.0065 9.8117 6.69533 9.13643 6.54336C9.06051 6.52628 8.99354 6.5112 8.93883 6.49734L8.46167 8.44337C8.50682 8.4548 8.55981 8.46918 8.61918 8.48529Z" fill="white"/>
</svg>
