<svg width="19" height="18" viewBox="0 0 19 18" fill="none" xmlns="http://www.w3.org/2000/svg">
<circle cx="9.5" cy="9" r="9" fill="white"/>
<path d="M9.65547 3.00009C7.08863 3.0104 5.01031 5.08872 5 7.65556C5 8.16962 5.08298 8.68023 5.24549 9.16778C5.36676 9.49968 5.72665 9.6784 6.06444 9.57578C6.39095 9.45058 6.56426 9.09364 6.46017 8.75977C6.32221 8.37976 6.26084 7.97666 6.279 7.57308C6.33497 5.71914 7.88303 4.26142 9.73697 4.31739C11.5909 4.37336 13.0486 5.92142 12.9927 7.77536C12.9401 9.51097 11.5732 10.9206 9.83959 11.0261C9.83959 11.0261 9.18609 11.0659 8.86106 11.1057C8.74126 11.1229 8.62245 11.1464 8.5051 11.1764C8.48841 11.1936 8.46141 11.1936 8.44422 11.1769L8.44373 11.1764C8.43195 11.1612 8.43195 11.1396 8.44373 11.1243L8.54487 10.5725L9.1586 7.81218C9.23224 7.46751 9.01278 7.12825 8.66811 7.0546C8.32344 6.98095 7.98417 7.20042 7.91053 7.54509C7.91053 7.54509 6.45084 14.3015 6.45084 14.3628C6.36738 14.6913 6.56573 15.0252 6.8942 15.1086C6.89764 15.1096 6.90156 15.1106 6.905 15.1111H6.93888C7.26685 15.196 7.6017 14.9987 7.68615 14.6707C7.68762 14.6653 7.6891 14.6599 7.69008 14.654C7.6891 14.6437 7.6891 14.6334 7.69008 14.6235C7.70824 14.544 7.89236 13.645 7.89236 13.645C8.0318 12.9665 8.57875 12.4465 9.26318 12.3415C9.40409 12.3199 9.99621 12.2801 9.99621 12.2801C12.5532 12.0253 14.4194 9.74566 14.1641 7.18864C13.9314 4.85649 11.9994 3.06097 9.65547 3.00009Z" fill="#1E1E1E"/>
<path d="M9.93798 13.7344C9.51819 13.647 9.10773 13.9166 9.02033 14.3359C9.01935 14.3398 9.01886 14.3437 9.01788 14.3476C8.92705 14.7645 9.1912 15.1764 9.60853 15.2673C9.60902 15.2673 9.60951 15.2673 9.61 15.2678H9.63161C10.0401 15.3664 10.4511 15.1151 10.5493 14.707C10.5502 14.7041 10.5507 14.7007 10.5517 14.6977V14.655C10.6239 14.2337 10.3548 13.8297 9.93798 13.7344Z" fill="#E6007A"/>
</svg>
