<svg width="18" height="18" viewBox="0 0 18 18" fill="none" xmlns="http://www.w3.org/2000/svg">
<circle cx="9" cy="9" r="9" fill="#E2E2EA"/>
<g clip-path="url(#clip0)">
<path d="M8.99912 2.33337L8.90967 2.63722V11.4534L8.99912 11.5427L13.0914 9.12368L8.99912 2.33337Z" fill="#343434"/>
<path d="M8.99915 2.33337L4.90674 9.12368L8.99915 11.5427V7.26353V2.33337Z" fill="#8C8C8C"/>
<path d="M8.99915 12.3174L8.94873 12.3789V15.5194L8.99915 15.6666L13.094 9.89969L8.99915 12.3174Z" fill="#3C3C3B"/>
<path d="M8.99915 15.6666V12.3174L4.90674 9.89969L8.99915 15.6666Z" fill="#8C8C8C"/>
<path d="M8.99902 11.5425L13.0913 9.12354L8.99902 7.2634V11.5425Z" fill="#161616"/>
<path d="M4.90674 9.12354L8.99915 11.5425V7.2634L4.90674 9.12354Z" fill="#383838"/>
</g>
<defs>
<clipPath id="clip0">
<rect width="13.3333" height="13.3333" fill="white" transform="translate(2.3335 2.33337)"/>
</clipPath>
</defs>
</svg>
