<svg width="20" height="20" viewBox="0 0 20 20" fill="none" xmlns="http://www.w3.org/2000/svg">
<path fill-rule="evenodd" clip-rule="evenodd" d="M14.144 3.92796C14.144 2.86398 15.008 2 16.072 2C17.1359 2 17.9999 2.86398 17.9999 3.92796C17.9999 4.99194 17.1359 5.85592 16.072 5.85592C15.008 5.85592 14.144 4.99194 14.144 3.92796ZM11.0641 12.2072L13.376 9.22401L13.344 9.24001C13.472 9.06402 13.496 8.84002 13.408 8.64003C13.3208 8.44003 13.128 8.30403 12.9208 8.28803C12.704 8.26404 12.4888 8.36003 12.36 8.53603L10.4249 11.04L8.20813 9.29601C8.07213 9.19202 7.91213 9.15122 7.75214 9.16802C7.59294 9.19202 7.44894 9.27921 7.35215 9.40721L4.985 12.4879L4.9362 12.5599C4.8002 12.8151 4.8642 13.1431 5.10419 13.3199C5.21619 13.3919 5.33619 13.4399 5.47218 13.4399C5.65698 13.4479 5.83218 13.3511 5.94418 13.1999L7.95213 10.6152L10.2321 12.3279L10.3041 12.3751C10.5601 12.5111 10.8801 12.4479 11.0641 12.2072ZM12.7598 3.42425C12.7278 3.62425 12.7118 3.82424 12.7118 4.02424C12.7118 5.8242 14.1677 7.27937 15.9597 7.27937C16.1597 7.27937 16.3517 7.25617 16.5517 7.22417V13.6792C16.5517 16.392 14.9517 17.9999 12.2318 17.9999H6.32071C3.59997 17.9999 2 16.392 2 13.6792V7.76016C2 5.04022 3.59997 3.42425 6.32071 3.42425H12.7598Z" fill="white"/>
</svg>
