<svg width="20" height="20" viewBox="0 0 20 20" fill="none" xmlns="http://www.w3.org/2000/svg">
<path d="M10 2C5.589 2 2 5.589 2 10C2 14.411 5.589 18 10 18C14.411 18 18 14.411 18 10C18 5.589 14.411 2 10 2ZM10.508 4.599L12.565 3.493C13.704 3.944 14.698 4.683 15.454 5.623L14.964 7.885L13.395 8.654L10.508 6.551V4.599ZM7.452 3.487L9.509 4.597V6.551L6.624 8.654L5.047 7.884L4.557 5.608C5.315 4.67 6.311 3.935 7.452 3.487ZM4.23 13.954C3.577 13.004 3.152 11.887 3.035 10.68L4.728 8.841L6.272 9.596L7.435 12.899L6.452 14.077L4.23 13.954ZM11.783 16.761C11.212 16.912 10.617 17 10 17C9.254 17 8.536 16.88 7.861 16.663L7.232 14.705L8.235 13.5H11.769L12.754 14.666L11.783 16.761ZM13.534 14.043L12.567 12.898L13.746 9.596L15.283 8.843L16.966 10.681C16.865 11.722 16.53 12.693 16.021 13.552L13.534 14.043Z" fill="white"/>
</svg>
