<svg width="24" height="24" viewBox="0 0 24 24" fill="none" xmlns="http://www.w3.org/2000/svg">
<rect width="24" height="24" rx="12" fill="white"/>
<path d="M11.9963 16.7417C10.3886 16.7417 8.78094 16.7417 7.15413 16.7417C6.54169 16.7417 6.08236 16.3557 6.0058 15.7572C5.96752 15.3904 6.12063 15.0236 6.40772 14.7727C6.56083 14.6569 6.71394 14.541 6.86705 14.4252C7.11586 14.2515 7.24983 14.0005 7.28811 13.7109C7.49863 12.4368 7.67088 11.1434 7.91969 9.88863C8.18763 8.44079 9.22113 7.26321 10.58 6.72268C10.7331 6.66477 10.7905 6.60685 10.8097 6.43311C10.8288 5.77676 11.2881 5.31345 11.9197 5.25553C12.4939 5.19762 13.0298 5.60301 13.1637 6.18215C13.1829 6.29798 13.202 6.41381 13.202 6.51033C13.202 6.60685 13.2403 6.64546 13.336 6.68407C14.7331 7.12808 15.7475 8.36357 16.0537 9.81141C16.2451 10.738 16.3599 11.684 16.5322 12.6106C16.6087 13.016 16.647 13.4214 16.7236 13.8268C16.7618 14.0584 16.8767 14.2322 17.0681 14.3673C17.2403 14.5024 17.4317 14.6376 17.604 14.7727C17.9485 15.0623 18.0633 15.429 17.9676 15.873C17.8719 16.317 17.5657 16.6066 17.1063 16.7031C17.0298 16.7224 16.9532 16.7224 16.8767 16.7224C15.2499 16.7417 13.6231 16.7417 11.9963 16.7417Z" fill="#4045D2"/>
<path d="M13.5852 17.1284C13.7383 17.1284 13.834 17.2636 13.7957 17.3987C13.5469 18.1902 12.8196 18.75 11.9775 18.75C11.1354 18.75 10.4081 18.1902 10.1593 17.3987C10.121 17.2636 10.2167 17.1284 10.3698 17.1284H13.5852Z" fill="#4045D2"/>
</svg>
