<svg width="20" height="20" viewBox="0 0 20 20" fill="none" xmlns="http://www.w3.org/2000/svg">
<path fill-rule="evenodd" clip-rule="evenodd" d="M10.0008 3.7912C10.6335 3.7912 11.1483 3.2568 11.1483 2.6C11.1483 2.2688 11.4072 2 11.7263 2L13.8079 2C15.5681 2 17 3.4864 17 5.3136L17 14.6856C17 16.5128 15.5681 18 13.8079 18L11.7263 18C11.4072 18 11.1483 17.7312 11.1483 17.4C11.1483 16.7424 10.6335 16.208 10.0008 16.208C9.38423 16.208 8.92029 16.7208 8.92029 17.4C8.92029 17.5592 8.85941 17.7112 8.75074 17.824C8.64208 17.9368 8.49488 18 8.34229 18L6.19289 17.9984C4.43268 17.9984 3 16.512 3 14.6848L3 5.3152C3 3.488 4.43268 2.0008 6.19289 2.0008L8.27524 2C8.42783 2 8.5758 2.0632 8.68369 2.1752C8.79236 2.288 8.85324 2.44 8.85324 2.6C8.85324 3.2568 9.36805 3.7912 10.0008 3.7912ZM10.5041 8.19851L9.61933 7.25531C9.46674 7.09131 9.2417 7.03451 9.03362 7.10571C8.82554 7.17611 8.67757 7.36011 8.64752 7.58251L8.4641 8.88571L7.32659 9.46891C7.13084 9.56891 7.00907 9.77211 7.0083 9.99851L7.0083 10.0001C7.0083 10.2257 7.13007 10.4289 7.32582 10.5305L8.4641 11.1137L8.64675 12.4145C8.67757 12.6393 8.82554 12.8233 9.03362 12.8945C9.2417 12.9649 9.46674 12.9081 9.61933 12.7449L10.5041 11.8017L11.7549 12.0241C11.9706 12.0625 12.1849 11.9721 12.3136 11.7881C12.3853 11.6841 12.4223 11.5633 12.4223 11.4409C12.4223 11.3473 12.3999 11.2529 12.356 11.1665L11.7656 10.0001L12.3544 8.83611C12.4585 8.63451 12.4423 8.39531 12.3128 8.21211C12.1849 8.02731 11.9706 7.93691 11.7549 7.97531L10.5041 8.19851Z" fill="white"/>
</svg>
