<svg width="20" height="20" viewBox="0 0 20 20" fill="none" xmlns="http://www.w3.org/2000/svg">
<path fill-rule="evenodd" clip-rule="evenodd" d="M10.2613 2.16773C10.389 2.05306 10.558 1.99295 10.731 2.00066C14.3877 2.11012 17.4437 4.76464 17.9975 8.3125C18.0011 8.33369 18.0011 8.35529 17.9975 8.37647C18.0095 8.54434 17.9527 8.70996 17.8399 8.83668C17.727 8.9634 17.5674 9.04079 17.3962 9.05173L11.2526 9.45688C11.0495 9.47489 10.848 9.40804 10.6977 9.27274C10.5473 9.13744 10.4621 8.94623 10.463 8.74609L10.05 2.71145V2.61194C10.0575 2.44222 10.1335 2.2824 10.2613 2.16773ZM9.83972 11.0349L15.1646 10.6937L15.2009 10.7079C15.4295 10.7117 15.6473 10.8044 15.8063 10.9657C15.9653 11.127 16.0524 11.3436 16.0485 11.568C15.8387 14.6257 13.5969 17.1805 10.5462 17.8386C7.4955 18.4968 4.36814 17.1004 2.87023 14.4112C2.42977 13.6366 2.15144 12.7836 2.05156 11.9021C2.01283 11.6409 1.99586 11.377 2.00085 11.1131C2.01095 7.8617 4.32582 5.0553 7.56485 4.36765C7.95696 4.29425 8.35009 4.49003 8.52117 4.84388C8.56375 4.90809 8.59784 4.97735 8.62259 5.05001C8.68331 5.98727 8.74629 6.91566 8.80901 7.84013C8.85854 8.57023 8.9079 9.2979 8.95586 10.0256C8.95338 10.197 8.98032 10.3676 9.03555 10.5302C9.16556 10.8502 9.48909 11.0533 9.83972 11.0349Z" fill="white"/>
</svg>
