<svg width="20" height="20" viewBox="0 0 20 20" fill="none" xmlns="http://www.w3.org/2000/svg">
<rect width="20" height="20" fill="white"/>
<path d="M10.1536 10.6724C12.2723 10.6724 13.9898 8.95487 13.9898 6.8362C13.9898 4.71753 12.2723 3 10.1536 3C8.03491 3 6.31738 4.71753 6.31738 6.8362C6.31738 8.95487 8.03491 10.6724 10.1536 10.6724Z" fill="#4F46E5"/>
<path d="M16.1989 16.1247C16.3763 16.0544 16.5355 15.9449 16.6647 15.8046C16.794 15.6642 16.8899 15.4964 16.9453 15.3139C17.0007 15.1313 17.0142 14.9385 16.9849 14.75C16.9555 14.5615 16.884 14.382 16.7757 14.2249C16.0174 13.1294 15.0048 12.2341 13.8246 11.6157C12.6445 10.9972 11.332 10.6742 9.99963 10.6742C8.66727 10.6742 7.35477 10.9972 6.17462 11.6157C4.99447 12.2341 3.98186 13.1294 3.22356 14.2249C3.1154 14.3823 3.04409 14.5619 3.01492 14.7506C2.98575 14.9393 2.99947 15.1322 3.05507 15.3148C3.11066 15.4975 3.2067 15.6652 3.33605 15.8057C3.4654 15.9461 3.62473 16.0556 3.80221 16.126C5.8 16.9222 7.93225 17.3269 10.0828 17.318C12.1782 17.3059 14.2527 16.9012 16.1989 16.1247Z" fill="#4F46E5"/>
</svg>
