<svg width="10" height="14" viewBox="0 0 10 14" fill="none" xmlns="http://www.w3.org/2000/svg">
<path fill-rule="evenodd" clip-rule="evenodd" d="M8.91245 1.0114C9.06927 0.870086 9.2952 0.835711 9.48693 0.924049C9.67976 1.00985 9.80295 1.2023 9.80015 1.41335V12.3994C9.8011 12.5311 9.75322 12.6585 9.66575 12.757C9.47044 12.9768 9.13394 12.9967 8.91412 12.8013L8.0859 12.0687C8.06325 12.0487 8.0292 12.0488 8.00666 12.0689L6.88057 13.0759C6.67695 13.2583 6.36871 13.2583 6.16505 13.0759L5.04007 12.0699C5.01744 12.0497 4.98324 12.0497 4.96062 12.0699L3.83564 13.0759C3.63201 13.2584 3.32374 13.2584 3.12011 13.0759L1.99424 12.0689C1.97185 12.0488 1.93789 12.0487 1.91538 12.0687L1.08791 12.8014C0.989344 12.8891 0.861802 12.9371 0.729877 12.9362C0.43538 12.9343 0.198243 12.6939 0.200211 12.3994V1.41335C0.199197 1.28151 0.247137 1.15397 0.334759 1.05544C0.530157 0.835711 0.866691 0.816005 1.08642 1.0114L1.91463 1.74404C1.93729 1.76407 1.97134 1.76398 1.99388 1.74383L3.1199 0.73685C3.32353 0.554421 3.6318 0.554421 3.83543 0.73685L4.96041 1.74291C4.98304 1.76312 5.01723 1.76312 5.03986 1.74291L6.16472 0.73685C6.36835 0.554391 6.67662 0.554391 6.88025 0.73685L8.00612 1.74383C8.02851 1.76398 8.06247 1.7641 8.08498 1.74407L8.91245 1.0114ZM2.20019 3.80001C1.97928 3.80001 1.80019 3.97909 1.80019 4.20001C1.80019 4.42092 1.97928 4.60001 2.20019 4.60001H7.80019C8.0211 4.60001 8.20019 4.42092 8.20019 4.20001C8.20019 3.97909 8.0211 3.80001 7.80019 3.80001H2.20019ZM1.80019 6.60001C1.80019 6.37909 1.97928 6.20001 2.20019 6.20001H7.80019C8.0211 6.20001 8.20019 6.37909 8.20019 6.60001C8.20019 6.82092 8.0211 7.00001 7.80019 7.00001H2.20019C1.97928 7.00001 1.80019 6.82092 1.80019 6.60001ZM2.20019 8.60001C1.97928 8.60001 1.80019 8.77909 1.80019 9.00001C1.80019 9.22092 1.97928 9.40001 2.20019 9.40001H7.80019C8.0211 9.40001 8.20019 9.22092 8.20019 9.00001C8.20019 8.77909 8.0211 8.60001 7.80019 8.60001H2.20019Z" fill="#38393E"/>
</svg>
