<svg width="18" height="18" viewBox="0 0 18 18" fill="none" xmlns="http://www.w3.org/2000/svg">
<path fill-rule="evenodd" clip-rule="evenodd" d="M17.7309 11.1773C16.5287 15.9987 11.6445 18.9327 6.82195 17.7306C2.00162 16.5286 -0.93299 11.645 0.269489 6.82382C1.47112 2.00181 6.35502 -0.932734 11.1762 0.269322C15.9985 1.47138 18.9328 6.35554 17.7306 11.1773H17.7309Z" fill="white"/>
<path d="M7.7847 5.5284C7.66431 5.5112 7.65857 5.50547 7.7159 5.49974C7.82483 5.48254 8.07708 5.50547 8.2548 5.5456C8.66758 5.64306 9.04022 5.89531 9.4358 6.33675L9.53899 6.45714L9.68805 6.43421C10.3244 6.33102 10.978 6.41128 11.5226 6.66353C11.6717 6.73233 11.9067 6.86992 11.9354 6.90431C11.9468 6.91578 11.964 6.99031 11.9755 7.06484C12.0156 7.33429 11.9984 7.53494 11.9124 7.68973C11.8666 7.77573 11.8666 7.79866 11.8952 7.87319C11.9182 7.93052 11.987 7.97065 12.05 7.97065C12.1876 7.97065 12.331 7.7528 12.3997 7.44895L12.4284 7.32856L12.48 7.38589C12.7724 7.71267 13.0017 8.16557 13.0361 8.48662L13.0476 8.57261L12.996 8.49808C12.91 8.36623 12.8297 8.28023 12.7208 8.2057C12.5259 8.07384 12.3195 8.03371 11.7749 8.00505C11.2818 7.97638 11.0009 7.93625 10.7257 7.84452C10.2556 7.68973 10.0148 7.48908 9.45873 6.74952C9.21221 6.42274 9.05742 6.24502 8.90263 6.09597C8.56438 5.76919 8.22614 5.5972 7.7847 5.5284Z" fill="#FF007A"/>
<path d="M12.055 6.25645C12.0665 6.0386 12.0952 5.89527 12.1582 5.76342C12.1812 5.71182 12.2041 5.66595 12.2098 5.66595C12.2156 5.66595 12.2041 5.70609 12.1869 5.75195C12.141 5.87807 12.1353 6.0558 12.164 6.25645C12.2041 6.51444 12.2213 6.54883 12.4965 6.82975C12.6226 6.96161 12.7717 7.12786 12.829 7.19666L12.9265 7.32279L12.829 7.23106C12.7086 7.1164 12.4334 6.89855 12.3704 6.86988C12.3302 6.84695 12.3245 6.84695 12.2958 6.87561C12.2729 6.89855 12.2672 6.93294 12.2672 7.0992C12.2614 7.35718 12.227 7.51771 12.141 7.68396C12.0952 7.76996 12.0894 7.75276 12.1296 7.6553C12.1582 7.58077 12.164 7.54637 12.164 7.29985C12.164 6.80108 12.1066 6.68069 11.7569 6.48004C11.6709 6.42844 11.5219 6.35391 11.4359 6.31378C11.3442 6.27365 11.2754 6.23925 11.2811 6.23925C11.2926 6.22779 11.6308 6.32525 11.7627 6.38258C11.9633 6.46284 11.9977 6.46857 12.0207 6.46284C12.0379 6.44564 12.0493 6.39978 12.055 6.25645Z" fill="#FF007A"/>
<path d="M8.01829 7.1107C7.77751 6.77819 7.62272 6.26222 7.65711 5.87811L7.66858 5.75772L7.72591 5.76919C7.8291 5.78639 8.00683 5.85518 8.09282 5.90678C8.32214 6.04437 8.42533 6.23356 8.52279 6.70366C8.55146 6.84125 8.59159 7.00178 8.60879 7.05337C8.63745 7.13937 8.74638 7.34002 8.83811 7.46615C8.90117 7.55787 8.86104 7.60374 8.71772 7.59227C8.49986 7.56934 8.20748 7.36869 8.01829 7.1107Z" fill="#FF007A"/>
<path d="M11.7615 9.60446C10.6264 9.14582 10.2251 8.75024 10.2251 8.07949C10.2251 7.98203 10.2308 7.90176 10.2308 7.90176C10.2366 7.90176 10.2767 7.93616 10.3283 7.97629C10.5576 8.15975 10.8156 8.24001 11.5322 8.3432C11.9507 8.40627 12.1915 8.45213 12.4094 8.52666C13.1031 8.75598 13.533 9.22608 13.6362 9.86244C13.6649 10.0459 13.6477 10.3956 13.6018 10.5791C13.5617 10.7224 13.447 10.9861 13.4184 10.9918C13.4126 10.9918 13.4012 10.9632 13.4012 10.9173C13.3897 10.6765 13.2693 10.4472 13.0687 10.2695C12.8279 10.0631 12.5183 9.9083 11.7615 9.60446Z" fill="#FF007A"/>
<path d="M10.9605 9.79373C10.949 9.70773 10.9203 9.59881 10.9031 9.55294L10.8745 9.46695L10.9261 9.53001C11.0006 9.61601 11.0579 9.7192 11.1095 9.86252C11.1497 9.97145 11.1497 10.0058 11.1497 10.1836C11.1497 10.3556 11.1439 10.3957 11.1095 10.4932C11.0522 10.6479 10.9834 10.7569 10.8687 10.8773C10.6624 11.0894 10.3929 11.204 10.0088 11.2556C9.94001 11.2614 9.74509 11.2786 9.5731 11.29C9.14313 11.313 8.85648 11.3588 8.59849 11.4506C8.5641 11.462 8.5297 11.4735 8.52397 11.4678C8.5125 11.4563 8.69022 11.3531 8.83355 11.2843C9.0342 11.1868 9.24059 11.1352 9.69349 11.055C9.91708 11.0206 10.1464 10.9747 10.2037 10.9518C10.7713 10.7741 11.0522 10.3326 10.9605 9.79373Z" fill="#FF007A"/>
<path d="M11.4822 10.7168C11.3332 10.39 11.2988 10.0804 11.3791 9.78804C11.3905 9.75938 11.402 9.73071 11.4134 9.73071C11.4249 9.73071 11.4593 9.74791 11.4937 9.77084C11.5625 9.81671 11.7058 9.89697 12.0727 10.0976C12.5371 10.3499 12.8008 10.5448 12.9843 10.7684C13.1448 10.9633 13.2423 11.1869 13.2881 11.4621C13.3168 11.6169 13.2996 11.9895 13.2595 12.1443C13.1333 12.6316 12.8467 13.0214 12.4282 13.245C12.3651 13.2794 12.3135 13.3024 12.3078 13.3024C12.3021 13.3024 12.325 13.245 12.3594 13.1762C12.497 12.8838 12.5142 12.6029 12.411 12.2876C12.3479 12.0927 12.2161 11.8576 11.9523 11.4621C11.637 11.0034 11.5625 10.883 11.4822 10.7168Z" fill="#FF007A"/>
<path d="M7.21024 12.471C7.63448 12.1155 8.15618 11.8633 8.63775 11.783C8.84413 11.7486 9.18811 11.7601 9.3773 11.8117C9.68115 11.892 9.95633 12.0639 10.0997 12.2761C10.2372 12.4825 10.3003 12.6602 10.3634 13.0557C10.3863 13.2105 10.415 13.3711 10.4207 13.4055C10.4666 13.6118 10.5583 13.7724 10.673 13.8584C10.8507 13.9902 11.1603 13.996 11.4641 13.8813C11.5157 13.8641 11.5616 13.8469 11.5616 13.8526C11.573 13.8641 11.4182 13.9673 11.315 14.0189C11.1717 14.0934 11.0571 14.1163 10.9023 14.1163C10.6271 14.1163 10.392 13.973 10.2028 13.6864C10.1627 13.629 10.0825 13.4628 10.0137 13.308C9.81301 12.8436 9.70981 12.706 9.47476 12.5512C9.26837 12.4194 9.00466 12.3907 8.804 12.4882C8.54029 12.6143 8.47149 12.9526 8.65495 13.1589C8.72947 13.2449 8.86707 13.3137 8.98173 13.3309C9.19385 13.3596 9.3773 13.1933 9.3773 12.9812C9.3773 12.8436 9.3257 12.7634 9.18811 12.7003C9.00466 12.62 8.804 12.7118 8.80974 12.8895C8.80974 12.964 8.84413 13.0099 8.91866 13.0443C8.96453 13.0672 8.96453 13.0672 8.93013 13.0615C8.76387 13.0271 8.72374 12.8207 8.8556 12.6888C9.01612 12.5283 9.35437 12.5971 9.46903 12.8207C9.51489 12.9124 9.52063 13.0959 9.48049 13.2105C9.38303 13.4628 9.10785 13.5946 8.82694 13.5201C8.63775 13.4685 8.55749 13.4169 8.32817 13.1819C7.92686 12.7691 7.77207 12.6888 7.19877 12.6028L7.08984 12.5856L7.21024 12.471Z" fill="#FF007A"/>
<path fill-rule="evenodd" clip-rule="evenodd" d="M4.19518 3.24652C5.53096 4.86895 7.5891 7.39146 7.69229 7.52905C7.77829 7.64371 7.74389 7.75264 7.60056 7.8329C7.5203 7.87876 7.35405 7.92463 7.27378 7.92463C7.18206 7.92463 7.07313 7.87876 6.9986 7.80423C6.947 7.75264 6.72342 7.42586 6.21892 6.64044C5.83481 6.03848 5.50803 5.53971 5.50229 5.53398C5.47936 5.52251 5.47936 5.52251 6.17879 6.7723C6.62022 7.55772 6.76355 7.83863 6.76355 7.87303C6.76355 7.94756 6.74062 7.98769 6.64889 8.09088C6.4941 8.26287 6.4253 8.45779 6.37371 8.86483C6.31638 9.31774 6.16159 9.63879 5.72015 10.1834C5.46216 10.5045 5.42203 10.5618 5.35897 10.6937C5.27871 10.8542 5.25578 10.9459 5.24431 11.1523C5.23284 11.3701 5.25578 11.5077 5.31884 11.7141C5.37617 11.8976 5.43923 12.018 5.59402 12.253C5.72588 12.4594 5.80614 12.6142 5.80614 12.6715C5.80614 12.7174 5.81761 12.7174 6.024 12.6715C6.51703 12.5569 6.92407 12.362 7.14766 12.1212C7.28525 11.9721 7.31965 11.8918 7.31965 11.6855C7.31965 11.5536 7.31391 11.5249 7.27952 11.4447C7.22219 11.3185 7.11326 11.2154 6.87821 11.0548C6.56863 10.8427 6.43677 10.6707 6.40237 10.4414C6.37371 10.2465 6.4081 10.1146 6.58009 9.75345C6.75782 9.3808 6.80368 9.22601 6.83234 8.84764C6.84954 8.60685 6.87821 8.50939 6.947 8.43486C7.02153 8.3546 7.0846 8.32593 7.26232 8.303C7.5547 8.26287 7.74389 8.18834 7.89295 8.04502C8.0248 7.92463 8.08213 7.80423 8.08787 7.62651L8.0936 7.49465L8.01907 7.41439C7.74962 7.10481 4.01745 3 4.00026 3C3.99452 3 4.08625 3.10893 4.19518 3.24652ZM5.9552 11.3988C6.01826 11.2899 5.98386 11.1523 5.88067 11.0835C5.78321 11.0204 5.63415 11.0491 5.63415 11.1351C5.63415 11.158 5.64562 11.181 5.68002 11.1924C5.73161 11.2211 5.73735 11.2498 5.69722 11.3128C5.65708 11.3759 5.65708 11.4332 5.70868 11.4733C5.78894 11.5364 5.89787 11.502 5.9552 11.3988Z" fill="#FF007A"/>
<path fill-rule="evenodd" clip-rule="evenodd" d="M8.27683 8.38337C8.13924 8.4235 8.00738 8.57256 7.96725 8.72161C7.94432 8.81334 7.95579 8.9796 7.99592 9.03119C8.05898 9.11146 8.11631 9.13439 8.27683 9.13439C8.59215 9.13439 8.8616 8.9968 8.89026 8.83054C8.91893 8.69295 8.79853 8.50376 8.63228 8.41777C8.54628 8.3719 8.36856 8.3547 8.27683 8.38337ZM8.64374 8.67002C8.68961 8.60122 8.67241 8.52669 8.58641 8.4751C8.43162 8.37764 8.19657 8.4579 8.19657 8.60695C8.19657 8.68148 8.31697 8.76174 8.43162 8.76174C8.50615 8.76174 8.60935 8.71588 8.64374 8.67002Z" fill="#FF007A"/>
</svg>
