<svg width="18" height="18" viewBox="0 0 18 18" fill="none" xmlns="http://www.w3.org/2000/svg">
<circle cx="9" cy="9" r="9" fill="#53AE94"/>
<path d="M10.0188 7.90087V6.6736H12.8253V4.80365H5.18314V6.6736H7.98996V7.89988C5.70883 8.00466 3.99365 8.45643 3.99365 8.99763C3.99365 9.53883 5.70966 9.9906 7.98996 10.096V14.0272H10.0195V10.0957C12.2965 9.9906 14.0082 9.53916 14.0082 8.99846C14.0082 8.45775 12.2965 8.00631 10.0195 7.9012L10.0188 7.90087ZM10.0195 9.76274V9.76175C9.96221 9.76538 9.66802 9.78303 9.01297 9.78303C8.48925 9.78303 8.12081 9.76818 7.99095 9.76142V9.76307C5.97564 9.6738 4.47133 9.32285 4.47133 8.90292C4.47133 8.48299 5.9758 8.13253 7.99095 8.0431V9.41343C8.12295 9.42251 8.50047 9.44478 9.02155 9.44478C9.64739 9.44478 9.96205 9.41871 10.0198 9.41343V8.0431C12.0312 8.1327 13.532 8.48398 13.532 8.90243C13.532 9.32087 12.0305 9.67232 10.0198 9.76191" fill="white"/>
</svg>
