<svg width="12" height="10" viewBox="0 0 12 10" fill="none" xmlns="http://www.w3.org/2000/svg">
<path d="M10.8094 2.14286H1.875C1.66781 2.14286 1.5 1.98304 1.5 1.78571C1.5 1.58839 1.66781 1.42857 1.875 1.42857H10.875C11.0822 1.42857 11.25 1.26875 11.25 1.07143C11.25 0.479688 10.7463 0 10.125 0H1.5C0.671484 0 0 0.639509 0 1.42857V8.57143C0 9.36049 0.671484 10 1.5 10H10.8094C11.4661 10 12 9.51942 12 8.92857V3.21429C12 2.62344 11.4661 2.14286 10.8094 2.14286ZM9.75 6.78571C9.33586 6.78571 9 6.46585 9 6.07143C9 5.67701 9.33586 5.35714 9.75 5.35714C10.1641 5.35714 10.5 5.67701 10.5 6.07143C10.5 6.46585 10.1641 6.78571 9.75 6.78571Z" fill="white"/>
</svg>
