<svg width="18" height="18" viewBox="0 0 18 18" fill="none" xmlns="http://www.w3.org/2000/svg">
<circle cx="9" cy="9" r="9" fill="#23292F"/>
<path d="M12.7136 4.5H14.2312L11.073 7.7366C9.92929 8.90809 8.07497 8.90809 6.93043 7.7366L3.771 4.5H5.2898L7.68922 6.95866C8.03881 7.31528 8.50995 7.5152 9.00079 7.5152C9.49164 7.5152 9.96278 7.31528 10.3124 6.95866L12.7136 4.5Z" fill="white"/>
<path d="M5.26909 13.5H3.75049L6.9292 10.2435C8.07292 9.072 9.92724 9.072 11.0718 10.2435L14.2505 13.5H12.7329L10.313 11.0214C9.9634 10.6648 9.49226 10.4649 9.00141 10.4649C8.51056 10.4649 8.03943 10.6648 7.68983 11.0214L5.26909 13.5Z" fill="white"/>
</svg>
